<?xml version="1.0" standalone="no"?>
<!DOCTYPE svg PUBLIC "-//W3C//DTD SVG 1.1//EN" "http://www.w3.org/Graphics/SVG/1.1/DTD/svg11.dtd" >
<svg xmlns="http://www.w3.org/2000/svg">
<metadata></metadata>
<defs>
<font id="agentcondbnormal" horiz-adv-x="825" >
<font-face units-per-em="2048" ascent="1638" descent="-410" />
<missing-glyph horiz-adv-x="494" />
<glyph horiz-adv-x="2048" />
<glyph horiz-adv-x="2048" />
<glyph unicode="&#xd;" horiz-adv-x="494" />
<glyph unicode=" "  horiz-adv-x="494" />
<glyph unicode="&#x09;" horiz-adv-x="494" />
<glyph unicode="&#xa0;" horiz-adv-x="494" />
<glyph unicode="!" horiz-adv-x="455" d="M172 0v213h180v-213h-180zM172 836v610h180v-610q0 -103 -10 -262q-15 -232 -16 -261h-136z" />
<glyph unicode="&#x22;" horiz-adv-x="752" d="M129 971v129q62 25 72 141h-72v205h186v-131q0 -266 -186 -344zM467 971v131q64 36 72 139h-72v205l182 -2v-105q0 -144 -30 -215q-39 -89 -152 -153z" />
<glyph unicode="#" horiz-adv-x="1135" d="M68 422v137h219l53 395h-219v140h239l60 422h141l-59 -422h254l59 422h141l-59 -422h170v-138h-190l-56 -397h189v-137h-207l-60 -422h-141l60 422h-254l-60 -422h-141l59 422h-198zM428 559h252l55 397h-252z" />
<glyph unicode="$" d="M51 414q0 30 4 92h183v-2q0 -16 -1 -49.5t-1 -51.5q0 -256 155 -256q95 0 133 57q31 46 31 146q0 60 -2 94q-7 126 -134 196q-223 124 -230 130q-121 105 -121 322q0 155 54 234q57 85 204 124v184h135v-184q183 -40 237 -163q35 -78 35 -296h-186q0 41 2 62 q0 238 -143 239q-95 1 -131 -60q-27 -47 -27 -151q0 -137 128 -208q120 -66 239 -131q128 -110 128 -339q0 -189 -48 -276q-62 -111 -234 -139v-183h-135v187q-169 32 -229 147q-46 87 -46 275z" />
<glyph unicode="%" horiz-adv-x="1319" d="M-18 840q0 229 4 303q9 159 52 216q54 71 206 71q130 0 178 -119q31 -75 31 -230v-243q0 -166 -39 -234q-53 -96 -205 -96q-140 0 -191 103q-36 72 -36 229zM121 791q2 -162 98 -162t96 170q0 48 -1 144t-1 144q0 107 -5 135q-17 85 -83 85q-67 0 -90 -50 q-14 -32 -14 -108v-358zM309 0l498 1417h127l-500 -1417h-125zM791 397q0 28 1 83.5t1 82.5q0 165 32 237q49 111 193 111q156 0 208 -104q36 -70 36 -244v-231q0 -169 -37 -241q-53 -103 -205 -103q-144 0 -191 101q-26 55 -36 230q-2 34 -2 78zM928 265q0 -143 102 -154 q63 16 81 54q11 24 11 97q0 62 1 184.5t1 184.5q0 160 -90 160q-106 0 -106 -170q0 -46 1 -139t1 -140q0 -11 -1 -37t-1 -40z" />
<glyph unicode="&#x26;" horiz-adv-x="1030" d="M53 379q0 229 217 432q-59 72 -99 167q-44 104 -44 187l-2 -2q0 135 88 218t223 83t214 -77t79 -211q0 -203 -233 -404l221 -334l114 226h203l-211 -396q82 -102 152 -102q12 0 37 4v-164q-30 -7 -88 -14q-132 -2 -209 129q-124 -141 -297 -141q-176 0 -273 113 q-92 107 -92 286zM236 381q0 -252 190 -250q119 1 190 137l-251 385q-72 -71 -97 -120q-32 -62 -32 -152zM307 1157q0 -54 23 -106q26 -47 51 -95q20 -38 22 -38l25 24q13 13 37 39q86 97 86 199q0 139 -123 139q-61 0 -93 -53q-28 -44 -28 -109z" />
<glyph unicode="'" horiz-adv-x="397" d="M125 975v180q0 216 182 297l2 -129q-70 -47 -80 -143h78v-205h-182z" />
<glyph unicode="(" horiz-adv-x="578" d="M94 545q0 250 81 473q64 178 218 428h178q-284 -421 -284 -911q0 -468 284 -885h-178q-299 418 -299 895z" />
<glyph unicode=")" horiz-adv-x="578" d="M-16 -352q127 183 204.5 427.5t77.5 467.5q0 492 -282 903h176q301 -445 301 -897q0 -456 -301 -899z" />
<glyph unicode="*" horiz-adv-x="782" d="M66 1163l57 144l182 -78v217h152v-217l180 78l53 -136l-188 -75l135 -152l-119 -90l-145 174l-131 -174l-131 90l131 152z" />
<glyph unicode="+" horiz-adv-x="989" d="M25 514v162h362v368h164v-368h367v-162h-367v-369h-164v369h-362z" />
<glyph unicode="," horiz-adv-x="412" d="M115 0v207h186v-166q0 -229 -186 -313v129h2q71 33 76 143h-78z" />
<glyph unicode="-" horiz-adv-x="616" d="M66 514v166h471v-166h-471z" />
<glyph unicode="." horiz-adv-x="412" d="M117 0v209h178v-209h-178z" />
<glyph unicode="/" horiz-adv-x="616" d="M10 0l383 1446h187l-383 -1446h-187z" />
<glyph unicode="0" d="M35 489l2 441q17 262 64 355q77 155 296 155q226 0 304 -170q53 -113 53 -369v-360q0 -266 -51 -380q-78 -179 -308 -179q-233 0 -309 149q-51 100 -51 358zM209 438q0 -303 186 -303h-2q109 0 146 72q23 44 28 168q6 145 6 487q0 24 2 69.5t3 65.5q3 289 -181 289 q-112 0 -155 -95q-30 -65 -30 -197v-54q1 -34 1 -49v-293q0 -27 -2 -80t-2 -80z" />
<glyph unicode="1" d="M137 1047v133q124 16 170 67q39 44 64 172h170v-1419h-185v1047h-219z" />
<glyph unicode="2" d="M47 0v141l428 660q80 123 80 289q0 194 -147 194q-166 0 -166 -242q0 -20 1 -61t1 -61h-178v73q0 216 61 317q80 130 281 130q167 0 254 -100q81 -94 81 -263q0 -192 -157 -432l-314 -477h482v-168h-707z" />
<glyph unicode="3" d="M16 391v68h181q0 -17 -1 -49.5t-1 -49.5q0 -235 165 -235q109 0 149 77q30 56 30 175q0 196 -44 244q-47 52 -237 51v166h6q11 0 34 -1t34 -1q132 0 174 80q29 54 29 200q0 170 -146 170q-164 0 -164 -215q0 -17 1 -52t1 -52h-184v80q0 193 74 288q83 107 270 107 q188 0 266 -111q64 -92 64 -289q0 -241 -178 -282q115 -45 153 -131q27 -62 27 -203q0 -229 -59 -324q-77 -127 -293 -127q-204 0 -285 112q-67 93 -66 304z" />
<glyph unicode="4" d="M25 338v154l417 929h213v-925h119v-158h-119v-338h-180v338h-450zM188 496h287v65q0 121 8 323q9 242 11 322q-141 -349 -306 -710z" />
<glyph unicode="5" d="M49 291v153l180 2v-65q0 -240 162 -240q175 0 172 254l-2 197q0 114 -24 167q-36 79 -138 79q-151 0 -168 -170h-159l34 753h619v-166h-461l-22 -381q83 117 231 117q177 0 238 -175q34 -101 34 -320q0 -249 -51 -356q-76 -160 -297 -160q-155 0 -247 76 q-101 83 -101 235z" />
<glyph unicode="6" d="M35 467q0 412 8 561q12 217 76 303q79 109 284 109q338 0 338 -357v-20h-174q0 20 2 29q0 204 -184 204q-107 0 -142 -82q-19 -45 -24 -174q-2 -55 -2 -127v-67q85 82 223 82q194 0 259 -144q42 -93 42 -313q0 -232 -56 -339q-79 -150 -290 -150q-226 0 -304 139 q-56 100 -56 346zM217 383q0 -126 34 -179q43 -69 163 -69q145 0 145 256v205q0 190 -166 190q-112 0 -151 -91q-25 -59 -25 -189v-123z" />
<glyph unicode="7" d="M59 1253v168h709v-139q-315 -489 -393 -1282h-197q52 385 129 644q80 270 248 609h-496z" />
<glyph unicode="8" d="M41 309v205q0 217 172 266q-143 58 -143 277q0 188 71 280q80 103 262 103q330 0 330 -363q0 -236 -139 -295q96 -30 130 -130q24 -66 24 -191q0 -259 -49 -347q-71 -132 -306 -132q-352 0 -352 327zM225 375q0 -120 27 -172q39 -74 147 -74q164 0 160 223l-2 111 q-2 119 -26 167q-37 72 -142 72q-106 0 -141 -77q-23 -49 -23 -170v-80zM258 1016q0 -168 141 -168q94 0 125 67q21 44 21 150q0 225 -127 225q-160 0 -160 -147v-127z" />
<glyph unicode="9" d="M43 358h174l-2 -26q-1 -14 -1 -27q0 -180 183 -180q109 0 144 81q20 45 24 175q2 56 2 127v67q-111 -81 -225 -81q-299 0 -299 358v166q0 422 342 422q227 0 306 -138q57 -99 57 -344q0 -130 -7 -491q-4 -270 -65 -362q-81 -123 -334 -123q-155 0 -232 115 q-67 99 -67 261zM221 1030q0 -23 1 -67.5t1 -65.5q0 -126 23 -178q35 -84 143 -84q113 0 153 91q25 59 25 189v127q0 244 -174 244q-172 0 -172 -256z" />
<glyph unicode=":" horiz-adv-x="455" d="M170 0v209h180v-209h-180zM170 743v213h180v-213h-180z" />
<glyph unicode=";" horiz-adv-x="455" d="M168 0v207h180v-166q0 -227 -180 -313v127q43 35 55 63q8 17 21 82h-76zM168 756v205h180v-205h-180z" />
<glyph unicode="&#x3c;" horiz-adv-x="1241" d="M94 455v127l1041 471v-140l-871 -395l871 -395v-139z" />
<glyph unicode="=" horiz-adv-x="989" d="M-49 326v161h1022v-161h-1022zM-49 696v162h1022v-162h-1022z" />
<glyph unicode="&#x3e;" horiz-adv-x="1241" d="M106 -16v139l871 395l-871 395v140l1041 -471v-127z" />
<glyph unicode="?" horiz-adv-x="743" d="M96 1022v147q0 139 78.5 213t216.5 74q170 0 233 -100q48 -77 48 -258q0 -127 -62 -250q-21 -40 -115 -180q-61 -91 -61 -144v-209h-176v195q0 100 61 200q57 79 114 157q61 87 61 153v182q0 105 -111 105q-115 0 -115 -156q0 -22 3 -65t3 -64h-178zM258 0v203h176v-203 h-176z" />
<glyph unicode="@" horiz-adv-x="2079" d="M301 739q0 318 227 544t545 226q284 0 489 -175q216 -184 216 -464q0 -206 -140 -392q-150 -199 -350 -199q-56 0 -92.5 36t-38.5 93l-4 -2q-115 -127 -246 -127t-218 99q-83 95 -83 228q0 215 127 383q138 182 346 182q163 0 236 -159l41 127h141q-51 -167 -149 -504 q-37 -135 -37 -164q0 -59 43 -59q123 0 213 165q78 142 78 277q0 238 -169 386q-162 142 -403 142q-270 0 -449 -194q-173 -188 -173 -461q0 -269 183.5 -454t455.5 -185q142 0 274.5 62t220.5 172h137q-99 -168 -271 -264.5t-368 -96.5q-327 0 -554.5 226t-227.5 552z M774 625q0 -83 44 -139q47 -60 128 -60q125 0 220 146q85 132 85 264q0 72 -47 128q-50 60 -121 60q-130 0 -224 -138q-85 -125 -85 -261z" />
<glyph unicode="A" horiz-adv-x="866" d="M-43 0l350 1446h215l330 -1446h-199l-88 444h-317l-92 -444h-199zM283 608h245q-85 381 -116 637q-21 -106 -65 -318t-64 -319z" />
<glyph unicode="B" horiz-adv-x="948" d="M90 0v1446h266q241 0 343 -63q135 -83 135 -308q0 -123 -24 -188q-32 -92 -124 -137q186 -33 186 -338q0 -227 -101 -321q-97 -91 -327 -91h-354zM279 166h178q140 0 188 62q41 53 41 198q0 133 -53.5 185.5t-186.5 52.5h-167v-498zM279 823h172q128 0 170 73 q28 51 28 191q0 191 -213 191h-157v-455z" />
<glyph unicode="C" horiz-adv-x="905" d="M76 582v116v234q0 253 65 371q88 159 322 159h-2q210 0 298 -132q72 -108 72 -329l-180 -2q0 33 -2 50q0 254 -215 254q-126 0 -161 -195q-13 -73 -13 -289q0 -54 -1 -162t-1 -161q0 -357 186 -357q205 0 205 287v14h182v-41q0 -188 -89 -298q-97 -119 -281 -119 q-252 0 -333 190q-49 112 -52 410z" />
<glyph unicode="D" horiz-adv-x="989" d="M88 0v1446h324q252 0 360 -97q115 -102 115 -352v-452q0 -317 -91 -425q-102 -120 -411 -120h-297zM276 160h127q207 0 262 108q33 65 33 297q0 66 1 196.5t1 194.5q0 167 -46 236q-59 86 -218 86h-160v-1118z" />
<glyph unicode="E" d="M94 0v1446h666v-168h-481v-449h446v-163h-446v-498h481v-168h-666z" />
<glyph unicode="F" horiz-adv-x="743" d="M100 0v1446h645v-168h-454v-455h411v-159h-411v-664h-191z" />
<glyph unicode="G" horiz-adv-x="989" d="M72 575v113v217q0 289 68 403q92 154 362 154h2q375 0 375 -452v-11h-187q-4 306 -207 306q-117 0 -168 -68q-44 -58 -51 -180q-8 -159 -8 -266v-320q0 -151 35 -225q51 -107 184 -107q135 0 185 131q31 80 32 242q0 21 -1 58q-1 41 -1 59h-256v162h434v-791h-155l-2 113 q-81 -131 -264 -131q-244 0 -325 192q-49 115 -52 401z" />
<glyph unicode="H" horiz-adv-x="1030" d="M84 0v1446h184v-610h453v610h188v-1446h-188v676h-453v-676h-184z" />
<glyph unicode="I" horiz-adv-x="412" d="M123 0v1446h182v-1446h-182z" />
<glyph unicode="J" d="M27 410v43h180v-80q0 -112 28 -166q39 -76 140 -76q155 0 155 266q0 18 -1 48.5t-1 41.5v959h181l2 -1077q0 -387 -332 -387q-208 0 -288 115q-64 95 -64 313z" />
<glyph unicode="K" horiz-adv-x="866" d="M92 0v1446h189v-688l405 688h219l-434 -701l487 -745h-231l-446 694v-694h-189z" />
<glyph unicode="L" horiz-adv-x="782" d="M96 0v1446h191v-1276h469v-170h-660z" />
<glyph unicode="M" horiz-adv-x="1403" d="M66 0v1446h284l277 -1036q20 -76 45 -238q49 269 143 639q83 318 166 635h293v-1446h-176v915q0 68 4 185q5 135 6 186q-58 -265 -155 -644q-83 -321 -167 -642h-225q-87 319 -173 637q-101 376 -157 641q11 -92 11 -221v-1057h-176z" />
<glyph unicode="N" horiz-adv-x="1071" d="M84 0v1446h238q120 -305 240 -609q141 -359 224 -614q-16 253 -21 612q-2 305 -5 611h190v-1446h-237l-410 1055l-55 159q21 -254 24 -606v-608h-188z" />
<glyph unicode="O" horiz-adv-x="989" d="M72 446v463q0 260 64 383q89 170 325 170q274 0 362 -168q60 -113 60 -415v-363q0 -257 -77 -379q-97 -155 -339 -155q-395 0 -395 464zM256 483q0 -158 38 -235q53 -109 195 -109q138 0 183 144q24 78 24 258q0 69 1 209t1 211q0 162 -38 238q-55 108 -201 108 q-139 0 -180 -151q-21 -73 -21 -261q0 -69 -1 -206t-1 -206z" />
<glyph unicode="P" horiz-adv-x="866" d="M94 0v1446h289q236 0 336 -74q119 -87 119 -313q0 -327 -119 -419q-98 -75 -427 -75h-9v-565h-189zM283 727h143q136 0 185 72q38 57 38 200q0 151 -36 207q-48 72 -189 72h-74q-11 0 -33.5 -1t-33.5 -1v-549z" />
<glyph unicode="Q" horiz-adv-x="989" d="M70 692q0 47 1 141.5t1 141.5q0 236 84 353q99 136 327 136h-2q255 0 342 -175q60 -119 60 -402v-357q0 -214 -43 -331l135 -123l-92 -107l-123 105q-130 -94 -287 -94q-257 0 -341 174q-52 106 -60 401q-2 70 -2 137zM256 483q0 -159 33 -232q50 -110 190 -110 q89 0 137 52l-143 124l92 107l111 -90q16 151 16 229v400q-1 154 -33 228q-49 114 -180 114q-141 0 -190 -113q-33 -74 -33 -236v-473z" />
<glyph unicode="R" horiz-adv-x="989" d="M88 0v1446h336q225 0 323 -69q119 -84 119 -300q0 -334 -198 -379q100 -29 142 -107q32 -59 38 -166q2 -91 4 -181q7 -104 61 -246l-194 2q-43 86 -49.5 274t-37.5 251q-55 110 -229 110h-124v-635h-191zM279 791h131q148 0 206 45q66 52 66 196q0 138 -55 193t-193 55 h-155v-489z" />
<glyph unicode="S" horiz-adv-x="905" d="M45 432h184v-18q0 -127 35 -186q46 -78 164 -78q207 0 207 223q0 145 -146 241q-136 85 -271 169q-146 126 -146 341q0 164 107 254q101 84 267 84q357 0 357 -385q0 -7 -1 -21.5t-1 -21.5h-185q0 12 1 37t1 39q0 193 -182 193q-82 0 -132 -47t-50 -128q0 -135 146 -237 q137 -91 273 -181q146 -129 146 -329q0 -399 -416 -399q-201 0 -287 130q-71 108 -71 320z" />
<glyph unicode="T" horiz-adv-x="743" d="M-25 1278v168h744v-168h-279v-1278h-186v1278h-279z" />
<glyph unicode="U" horiz-adv-x="989" d="M74 446v1000h182v-997q0 -312 227 -312q152 0 194 175q17 71 17 294v840h183v-1016q0 -448 -410 -448q-393 0 -393 464z" />
<glyph unicode="V" horiz-adv-x="905" d="M-45 1446h192l236 -1065q16 -71 27 -180q10 87 26 153l266 1092h191l-385 -1446h-205z" />
<glyph unicode="W" horiz-adv-x="1403" d="M-70 1446h189l151 -938q12 -106 37 -318q27 191 70 421q31 162 84 417q72 348 86 418l209 -2q96 -521 115 -634q63 -359 98 -638q63 426 219 1274h192l-301 -1446h-221l-184 961q-29 149 -31 227q-4 -90 -43 -279l-188 -909h-219z" />
<glyph unicode="X" horiz-adv-x="905" d="M-45 0l362 758l-344 688h211l203 -436q12 -39 43 -115q26 113 104 279l128 272h204l-327 -680l354 -766h-213q-61 135 -176 406q-30 71 -74 217q-7 -28 -33 -86l-233 -537h-209z" />
<glyph unicode="Y" horiz-adv-x="948" d="M-47 1446h209l150 -314q87 -185 128 -323q46 128 283 637h211l-397 -817v-629h-187v629z" />
<glyph unicode="Z" horiz-adv-x="905" d="M-2 0v152l643 1128h-547v166h764v-150l-639 -1132h617v-164h-838z" />
<glyph unicode="[" horiz-adv-x="537" d="M121 -344v1790h377v-146h-199v-1499h199v-145h-377z" />
<glyph unicode="\" horiz-adv-x="569" d="M-35 1509h135l504 -1548h-137z" />
<glyph unicode="]" horiz-adv-x="537" d="M29 -199h196v1499h-196v146h372v-1790h-372v145z" />
<glyph unicode="^" horiz-adv-x="0" d="M-307 1556l166 275h288l170 -275h-186l-123 191l-131 -191h-184z" />
<glyph unicode="_" horiz-adv-x="1139" d="M0 -154h1139v-102h-1139v102z" />
<glyph unicode="`" horiz-adv-x="0" d="M-217 1446h221l82 -275h-147z" />
<glyph unicode="a" horiz-adv-x="782" d="M47 299q0 179 119 261q4 3 221 95q119 51 119 154q0 117 -137 117q-119 0 -119 -166q0 -18 2 -39h-166v61q0 287 299 287q166 0 232 -89q57 -76 57 -247v-596q0 -95 33 -137h-183l-6 123q-58 -76 -96 -100q-51 -33 -135 -33h-3q-122 0 -184 96q-53 81 -53 213zM227 299 q0 -158 138 -158q139 0 139 238v182q-96 -42 -191 -83q-86 -55 -86 -179z" />
<glyph unicode="b" d="M78 0v1446h174l-2 -481q67 59 98 76q52 30 121 30h3q159 0 220 -116q45 -85 45 -263v-364q0 -338 -266 -338q-109 0 -219 110v-100h-174zM248 627q0 -26 2 -77t2 -77q0 -18 -1 -52t-1 -50q0 -115 31 -167q40 -69 147 -69q88 0 115 127q12 58 12 197v221q0 110 -24 164 q-36 80 -132 80q-151 0 -151 -297z" />
<glyph unicode="c" horiz-adv-x="782" d="M63 393v285q0 188 67 281q79 110 259 110q175 0 250 -98q66 -85 66 -266h-166q-7 119 -23 157q-31 75 -127 76h-2q-97 0 -130 -97q-18 -55 -19 -182l-2 -278v-9q0 -112 24 -165q38 -82 143 -82q90 0 119 108q14 50 17 181l170 2q2 -15 2 -43q0 -193 -68 -282 q-77 -101 -264 -101q-179 0 -255 119q-61 95 -61 284z" />
<glyph unicode="d" d="M59 336v366q0 173 50 257q64 110 225 110q121 0 209 -104v481h176v-1446h-176v104q-88 -114 -224 -114q-260 0 -260 346zM240 393q0 -260 145 -260q97 0 133 81q25 54 25 165v299q0 116 -24 169q-37 81 -138 81q-141 0 -141 -264v-271z" />
<glyph unicode="e" d="M57 496q0 300 33 390q66 183 309 183q332 0 332 -373v-213h-495l-3 -102v-15q0 -239 154 -239q101 0 139 68q25 46 29 159h176v-35q0 -156 -88.5 -242.5t-245.5 -86.5q-222 0 -294 154q-46 97 -46 352zM236 633h321q-2 71 -5 143q-7 76 -40 111q-42 45 -137 45 q-139 0 -139 -234v-16v-49z" />
<glyph unicode="f" horiz-adv-x="494" d="M-2 911v148h125q0 16 -1 49.5t-1 50.5q0 134 34 198q46 89 169 89h133l-2 -158q-11 0 -31.5 1t-30.5 1q-94 0 -94 -121q0 -18 2 -55t2 -55h154v-148h-154v-911h-180v911h-125z" />
<glyph unicode="g" d="M61 358v392q0 319 267 319q132 0 219 -111v101h174v-1034q0 -197 -65 -288q-77 -108 -265 -108q-311 0 -311 297v6h176v-14q0 -156 131 -156q154 0 156 172l2 181q-77 -108 -223 -109h-3q-258 0 -258 352zM238 649q0 -39 2 -116.5t2 -116.5q0 -117 23 -175 q37 -89 136 -89q98 0 129 108q17 57 17 186q0 35 1 105t1 104q0 271 -150 271q-161 0 -161 -277z" />
<glyph unicode="h" d="M78 0v1446h180v-483q82 107 219 108h3q150 0 207 -106q42 -79 42 -246v-719h-182v711q0 103 -15 140q-26 69 -112 69q-111 0 -145 -105q-17 -53 -17 -197v-618h-180z" />
<glyph unicode="i" horiz-adv-x="371" d="M100 0v1059h179v-1059h-179zM100 1233v213h179v-213h-179z" />
<glyph unicode="j" horiz-adv-x="371" d="M-66 -211q29 0 43 -2q55 0 76 20t21 76v1176h180v-1237q0 -83 -53 -137t-135 -54h-132v158zM74 1235v211h180v-211h-180z" />
<glyph unicode="k" horiz-adv-x="743" d="M82 0v1446h182v-817l246 430h201l-260 -461l294 -598h-200l-281 559v-559h-182z" />
<glyph unicode="l" horiz-adv-x="371" d="M96 0v1446h183v-1446h-183z" />
<glyph unicode="m" horiz-adv-x="1237" d="M57 0v1059h176v-127q70 139 226 139q74 0 131 -36q64 -40 76 -109q48 80 101 112q57 33 148 33q220 0 220 -301v-770h-183v719q0 94 -15 133q-25 65 -103 66q-101 0 -133 -100q-17 -54 -17 -183v-635h-178v715q0 205 -121 205q-103 0 -135 -103q-17 -53 -17 -186v-631 h-176z" />
<glyph unicode="n" d="M78 0v1059h172v-115q91 127 227 127q151 0 209 -102q43 -76 43 -240v-729h-182v715q0 101 -14 137q-25 66 -109 66q-116 0 -149 -111q-15 -51 -15 -205v-602h-182z" />
<glyph unicode="o" d="M61 381v328q0 358 326 358q211 0 288 -122q58 -94 58 -318v-258q0 -379 -342 -379q-182 0 -261 108q-69 93 -69 283zM238 387q0 -118 25 -175q38 -85 140 -85q103 0 135 93q17 51 17 179v289q-1 118 -29 170q-39 74 -145 74q-143 0 -143 -250v-295z" />
<glyph unicode="p" d="M78 -381v1440h172l2 -103q94 113 223 113q165 0 223 -129q39 -86 39 -272q0 -41 3 -120t3 -118q0 -440 -268 -440q-71 0 -124 29q-27 15 -101 77v-477h-172zM250 389q0 -119 27 -175q39 -81 145 -81q133 0 133 244v305q0 246 -149 246q-108 0 -141 -114q-15 -56 -15 -204 v-221z" />
<glyph unicode="q" d="M63 332v362q0 174 46 260q62 117 221 117q140 0 217 -113v101h176v-1440h-176l2 473q-96 -102 -217 -102q-269 0 -269 342zM246 440q0 -134 15 -191q31 -114 128 -114q112 0 143 111q13 47 15 200l2 226v7q0 251 -152 251q-96 0 -130 -93q-21 -57 -21 -173v-224z" />
<glyph unicode="r" horiz-adv-x="494" d="M94 0v1059h166l-2 -135q10 82 92 124q67 33 160 33h8v-170q-141 -1 -192.5 -54.5t-51.5 -194.5v-662h-180z" />
<glyph unicode="s" horiz-adv-x="743" d="M47 319v50h162q0 -110 21 -160q33 -80 126 -80q140 0 140 152q0 100 -113 175q-104 66 -209 132q-113 93 -113 237q0 111 94 180q84 63 197 64h4q291 0 291 -299v-29h-172q0 10 1 28t1 28q0 139 -131 139q-52 0 -84 -35.5t-33 -89.5q0 -76 113 -147q197 -125 210 -137 q114 -98 114 -238q0 -138 -81 -218q-80 -79 -215 -79h-3q-320 1 -320 327z" />
<glyph unicode="t" horiz-adv-x="494" d="M-2 911v148h125v291h174v-291h174v-148h-174v-686q0 -69 106 -69q23 0 68 4v-160q-61 -4 -92 -4q-145 0 -204.5 61t-59.5 207v647h-117z" />
<glyph unicode="u" d="M72 336v723h182v-760q0 -156 131 -156q109 0 143 107q19 57 19 196v613h176v-1053l-176 -6l-2 106q-80 -120 -219 -120q-254 0 -254 350z" />
<glyph unicode="v" horiz-adv-x="700" d="M-35 1059h189q48 -210 96 -419q56 -247 80 -421q4 73 35 213l137 627h188l-268 -1059h-186z" />
<glyph unicode="w" horiz-adv-x="1114" d="M-55 1059h178q46 -228 123 -682q4 -51 16 -152q16 178 68 419q48 208 96 415l182 2q119 -549 160 -828q2 63 23 175l118 651h187l-230 -1059l-184 2l-96 408q-54 241 -68 413q-34 -231 -172 -823h-182z" />
<glyph unicode="x" horiz-adv-x="743" d="M-37 0l279 539l-258 520l202 -2q73 -160 86 -192q46 -110 70 -197q22 88 162 391h205l-265 -520l285 -539l-207 2q-65 130 -182 397q-19 -88 -72 -203l-94 -196h-211z" />
<glyph unicode="y" horiz-adv-x="700" d="M-35 1059h193l145 -621q22 -95 29 -200q16 174 70 412q48 205 96 409h192l-323 -1227q-37 -137 -123 -175q-50 -22 -217 -28l-2 154h22q101 0 140 83q23 85 46 171z" />
<glyph unicode="z" horiz-adv-x="743" d="M29 0v123l430 778h-367v158h580v-131l-430 -774h430v-154h-643z" />
<glyph unicode="{" horiz-adv-x="684" d="M86 479v123q113 0 148 138q19 75 16 229l-2 88q-4 180 23 269q46 153 190 153h137v-133h-90q-94 0 -94 -168v-232q0 -45 -2 -117q-3 -87 -50 -171q-53 -95 -129 -115v-4q184 -55 181 -408l-2 -178q0 -221 96 -221h90v-133h-137q-98 0 -157 86q-52 76 -52 178v350 q0 94 -36 170q-46 96 -130 96z" />
<glyph unicode="|" horiz-adv-x="532" d="M193 -39v1548h149v-1548h-149z" />
<glyph unicode="}" horiz-adv-x="684" d="M86 -268h90q98 0 94 221q-2 127 -2 176q0 156 27 242q42 134 156 168l-2 4q-76 20 -130 114q-47 85 -49 170v351q0 168 -94 168h-90v133h137q213 0 213 -381q0 -25 -1 -69t-1 -60q0 -163 17 -229q34 -138 147 -138v-123q-84 0 -130 -96q-36 -76 -36 -170v-350 q0 -102 -52 -178q-59 -86 -157 -86h-137v133z" />
<glyph unicode="~" horiz-adv-x="0" d="M-299 1577v43q0 85 41 141q46 62 127 62q47 0 121 -36l116 -58h13q61 0 65 92h121q0 -3 1 -10.5t1 -10.5v-26q0 -199 -166 -199q-32 0 -114 33t-109 55q-16 4 -24 4q-74 0 -70 -90h-123z" />
<glyph unicode="&#xa1;" horiz-adv-x="455" d="M115 0v610q0 103 10 261q15 233 16 262h133q23 -479 23 -523v-610h-182zM115 1233v213h182v-213h-182z" />
<glyph unicode="&#xa2;" horiz-adv-x="782" d="M63 393v283q0 354 259 389v172h135v-170q248 -32 248 -362h-166q-10 123 -24 157q-30 75 -126 76q-99 1 -132 -97q-18 -55 -19 -182l-2 -278q-1 -119 24 -174q38 -82 143 -82q90 0 119 108q14 50 17 181l170 2q2 -15 2 -45q0 -163 -47 -249q-60 -108 -207 -128v-172h-135 v170q-259 31 -259 401z" />
<glyph unicode="&#xa3;" horiz-adv-x="905" d="M29 170q0 84 51 132q50 45 135 46q47 1 94 -29v35q0 110 -57 275h-164v157h137q-51 157 -51 340q0 145 86 234.5t229 89.5q316 0 316 -354v-68l-178 2v45q0 211 -133 211q-84 0 -115 -60q-23 -43 -23 -136q0 -64 19 -153q17 -75 35 -151h217v-157l-183 -2 q35 -118 35 -279q0 -35 -4 -104q73 -78 135 -78q73 0 66 182h182v-61q0 -305 -231 -303q-128 1 -217 96q-87 -96 -201 -96q-78 0 -129 54.5t-51 131.5zM156 162q0 -41 49 -41q22 0 49.5 16t36.5 35l4 2q-1 8 -40 23.5t-50 15.5q-49 0 -49 -51z" />
<glyph unicode="&#xa7;" horiz-adv-x="866" d="M31 647q0 182 139 316q-64 108 -64 190q2 150 89 231q85 78 235 78q173 0 249 -95q69 -85 69 -261q0 -25 -3 -37l-184 -2q0 11 1 33.5t1 34.5q0 170 -135 170q-137 0 -137 -140q0 -115 131 -209q122 -82 244 -163q131 -111 131 -267q0 -202 -142 -327q78 -88 78 -205 q0 -161 -84 -256q-89 -98 -248 -98q-202 0 -280 121q-62 97 -62 311h191q0 -18 -1 -52.5t-1 -52.5q0 -68 38.5 -112.5t106.5 -44.5q148 0 148 151q0 119 -133 216q-122 85 -245 171q-132 121 -132 299zM209 647q0 -96 119 -195q100 -69 200 -139v2q88 92 88 201 q0 98 -124 189q-102 66 -203 133q-80 -95 -80 -191z" />
<glyph unicode="&#xa8;" horiz-adv-x="0" d="M-258 1241v205h186v-205h-186zM70 1241v205h190v-205h-190z" />
<glyph unicode="&#xa9;" horiz-adv-x="1620" d="M102 649q0 281 198.5 479.5t479.5 198.5t479.5 -198.5t198.5 -479.5q0 -282 -197.5 -480t-480.5 -198q-281 0 -479.5 198.5t-198.5 479.5zM180 649q0 -247 176.5 -423.5t423.5 -176.5q248 0 424 176.5t176 423.5q0 248 -176 424t-424 176q-247 0 -423.5 -176t-176.5 -424 zM412 633q-1 160 103.5 275.5t262.5 115.5q37 0 105.5 -19t103.5 -20q38 -1 47 33h37l8 -252h-39q-15 89 -80.5 147.5t-154.5 59.5q-123 1 -199 -110q-67 -98 -67 -228q0 -135 64 -218q71 -90 202 -91q80 -1 139 26q45 21 117 80l22 -35q-136 -143 -292 -143 q-171 0 -275 104t-104 275z" />
<glyph unicode="&#xab;" horiz-adv-x="782" d="M74 489v226l270 291v-273l-156 -133l156 -123v-276zM393 492v223l275 293v-273l-148 -133l148 -125v-274z" />
<glyph unicode="&#xac;" horiz-adv-x="1460" d="M31 459v106h1308v-565h-108v459h-1200z" />
<glyph unicode="&#xad;" horiz-adv-x="616" d="M66 514v166h471v-166h-471z" />
<glyph unicode="&#xae;" horiz-adv-x="1620" d="M100 639q0 280 199.5 479t478.5 199q280 0 479 -199t199 -479q0 -281 -198.5 -479.5t-479.5 -198.5t-479.5 198.5t-198.5 479.5zM178 637q0 -248 176 -423t424 -175t424 176.5t176 423.5t-177 423.5t-425 176.5t-423 -176.5t-175 -425.5zM455 297v35q96 0 96 51v567 q0 46 -23 55q-7 3 -63 3v36h336q268 0 268 -184q0 -82 -58.5 -139t-142.5 -57l236 -304q22 -28 72 -28v-35h-187l-262 348h-51v-256q0 -57 92 -57v-35h-313zM674 963l2 -273q114 5 169 26q91 36 91 128q0 82 -38 117q-34 30 -120 38q-43 5 -63 5q-42 0 -41 -41z" />
<glyph unicode="&#xb0;" horiz-adv-x="494" d="M-14 1051q0 121 86.5 208t208.5 87q119 0 206.5 -88t87.5 -207q0 -121 -87 -207t-207 -86q-122 0 -208.5 85.5t-86.5 207.5zM63 1051q0 -89 64 -152t154 -63q89 0 153 63t64 152q0 88 -65.5 151.5t-153.5 63.5q-90 0 -153 -63t-63 -152z" />
<glyph unicode="&#xb1;" horiz-adv-x="1126" d="M23 0v109h1038v-109h-1038zM23 694v109h464v465h109v-465h465v-109h-465v-467h-109v467h-464z" />
<glyph unicode="&#xb4;" horiz-adv-x="0" d="M-82 1178l82 268h221l-151 -268h-152z" />
<glyph unicode="&#xb5;" horiz-adv-x="1182" d="M68 -299q0 54 27.5 158.5t27.5 158.5v965h168v-653q0 -99 43 -159q49 -67 143 -67q62 1 128.5 47t92.5 103v729h168v-756q0 -57 24 -105q30 -59 83 -59q54 0 75 47q15 45 29 91l39 -2q-49 -232 -239 -232q-87 0 -127 58q-29 40 -48 137q-135 -195 -311 -195 q-59 0 -108 30l-90 66v-45q0 -54 31.5 -157.5t31.5 -157.5q0 -52 -21 -92q-25 -49 -71 -49q-48 0 -74 48q-22 39 -22 91z" />
<glyph unicode="&#xb6;" horiz-adv-x="1366" d="M180 1038q0 197 131 306q121 102 322 102h471v-111h-70v-1677h-119v1677h-294v-1677h-119v995q-151 25 -236.5 128.5t-85.5 256.5z" />
<glyph unicode="&#xb8;" horiz-adv-x="0" d="M-123 -434l82 170h-74v205h226v-205l-91 -170h-143z" />
<glyph unicode="&#xbb;" horiz-adv-x="782" d="M94 201v270l148 135l-148 123v277l273 -291v-223zM416 205v268l157 135l-157 119v281l272 -291v-225z" />
<glyph unicode="&#xbf;" horiz-adv-x="743" d="M47 242v147q0 115 79 241l142 216q25 45 23 139q-1 16 -3 73q-1 44 -1 72h172v-194q0 -113 -70 -221q-69 -95 -137 -191q-31 -48 -29 -166q2 -115 8 -140q19 -81 93 -81q125 0 125 150q0 22 -3.5 67t-3.5 68h183v-137q0 -141 -76.5 -219t-216.5 -78q-125 0 -202 63 q-83 68 -83 191zM287 1243v203h172v-203h-172z" />
<glyph unicode="&#xc0;" horiz-adv-x="866" d="M-43 0l350 1446h215l330 -1446h-199l-88 444h-317l-92 -444h-199zM174 1831h215l74 -264h-158zM283 608h245q-85 381 -116 637q-21 -106 -65 -318t-64 -319z" />
<glyph unicode="&#xc1;" horiz-adv-x="866" d="M-43 0l350 1446h215l330 -1446h-199l-88 444h-317l-92 -444h-199zM283 608h245q-85 381 -116 637q-21 -106 -65 -318t-64 -319zM291 1563l82 268h217l-141 -268h-158z" />
<glyph unicode="&#xc2;" horiz-adv-x="866" d="M-43 0l350 1446h215l330 -1446h-199l-88 444h-317l-92 -444h-199zM74 1556l164 275h288l170 -275h-182l-127 191l-127 -191h-186zM283 608h245q-85 381 -116 637q-21 -106 -65 -318t-64 -319z" />
<glyph unicode="&#xc3;" horiz-adv-x="866" d="M-43 0l350 1446h215l330 -1446h-199l-88 444h-317l-92 -444h-199zM80 1597q0 226 168 226q48 0 122 -36q59 -29 117 -58h15q67 0 63 92h121v-2q0 -7 1 -19t1 -18q0 -207 -164 -207q-48 0 -141 47t-109 47q-63 1 -71 -92h-121q0 3 -1 10t-1 10zM283 608h245 q-85 381 -116 637q-21 -106 -65 -318t-64 -319z" />
<glyph unicode="&#xc4;" horiz-adv-x="866" d="M-43 0l350 1446h215l330 -1446h-199l-88 444h-317l-92 -444h-199zM86 1595v236h203v-236h-203zM281 608h247q-45 211 -118 635q-7 -36 -129 -635zM522 1595v236h199v-236h-199z" />
<glyph unicode="&#xc5;" horiz-adv-x="866" d="M-45 0l350 1446h215l330 -1446h-199l-88 444h-317l-92 -444h-199zM225 1694q0 76 52.5 127t128.5 51q74 0 126 -51t52 -125q0 -78 -51.5 -130.5t-129.5 -52.5q-73 0 -125.5 53.5t-52.5 127.5zM279 608h247q-84 376 -118 635q-7 -36 -129 -635zM324 1696q0 -84 75 -84h-2 q90 0 90 84q0 32 -23.5 56t-55.5 24q-33 0 -58.5 -23.5t-25.5 -56.5z" />
<glyph unicode="&#xc6;" horiz-adv-x="1319" d="M-90 0l588 1446h737v-162h-461v-440h436v-164h-436v-510h461v-170h-645v401h-324l-153 -401h-203zM332 567h258v731q-46 -174 -258 -731z" />
<glyph unicode="&#xc7;" horiz-adv-x="905" d="M76 582v116v234q0 253 65 371q88 159 322 159h-2q210 0 298 -132q72 -108 72 -329l-180 -2q0 33 -2 50q0 254 -215 254q-126 0 -161 -195q-13 -73 -13 -289q0 -54 -1 -162t-1 -161q0 -357 186 -357q210 0 205 301h182v-41q0 -188 -89 -298q-97 -119 -281 -119 q-252 0 -333 190q-49 112 -52 410zM289 -434l84 170h-74v205h225v-205l-90 -170h-145z" />
<glyph unicode="&#xc8;" d="M94 0v1446h666v-168h-481v-449h446v-163h-446v-498h481v-168h-666zM168 1831h217l74 -264h-160z" />
<glyph unicode="&#xc9;" d="M94 0v1446h666v-168h-481v-449h446v-163h-446v-498h481v-168h-666zM287 1563l82 268h217l-144 -268h-155z" />
<glyph unicode="&#xca;" d="M88 1556l168 275h287l168 -275h-183l-122 191l-132 -191h-186zM115 0v1446h665v-168h-481v-449h446v-163h-446v-498h481v-168h-665z" />
<glyph unicode="&#xcb;" d="M78 1595v236h203v-236h-203zM115 0v1446h665v-168h-481v-449h446v-163h-446v-498h481v-168h-665zM512 1595v236h201v-236h-201z" />
<glyph unicode="&#xcc;" horiz-adv-x="412" d="M-16 1831h217l73 -264h-157zM125 0v1446h182v-1446h-182z" />
<glyph unicode="&#xcd;" horiz-adv-x="412" d="M119 1563l82 268h217l-142 -268h-157zM141 0v1446h183v-1446h-183z" />
<glyph unicode="&#xce;" horiz-adv-x="412" d="M-127 1556l166 275h289l170 -275h-187l-123 191l-129 -191h-186zM113 0v1446h182v-1446h-182z" />
<glyph unicode="&#xcf;" horiz-adv-x="412" d="M-141 1595v236h200v-236h-200zM109 0v1446h182v-1446h-182zM293 1595v236h201v-236h-201z" />
<glyph unicode="&#xd1;" horiz-adv-x="1071" d="M84 0v1446h238q120 -305 240 -609q141 -359 224 -614q-16 253 -21 612q-2 305 -5 611h190v-1446h-237l-410 1055l-55 159q21 -254 24 -606v-608h-188zM193 1577v43q0 85 40 141q46 62 127 62q48 0 133.5 -47t116.5 -47q70 0 66 92h121q0 -3 1 -10.5t1 -10.5v-26 q0 -199 -164 -199q-49 0 -139.5 46t-112.5 46q-59 0 -68 -90h-122z" />
<glyph unicode="&#xd2;" horiz-adv-x="989" d="M72 446v463q0 260 64 383q89 170 325 170q274 0 362 -168q60 -113 60 -415v-363q0 -257 -77 -379q-97 -155 -339 -155q-395 0 -395 464zM244 1831h217l74 -264h-158zM256 483q0 -158 38 -235q53 -109 195 -109q138 0 183 144q24 78 24 258q0 69 1 209t1 211 q0 162 -38 238q-55 108 -201 108q-139 0 -180 -151q-21 -73 -21 -261q0 -69 -1 -206t-1 -206z" />
<glyph unicode="&#xd3;" horiz-adv-x="989" d="M72 446v463q0 260 64 383q89 170 325 170q274 0 362 -168q60 -113 60 -415v-363q0 -257 -77 -379q-97 -155 -339 -155q-395 0 -395 464zM256 483q0 -158 38 -235q53 -109 195 -109q138 0 183 144q24 78 24 258q0 69 1 209t1 211q0 162 -38 238q-55 108 -201 108 q-139 0 -180 -151q-21 -73 -21 -261q0 -69 -1 -206t-1 -206zM362 1563l82 268h218l-142 -268h-158z" />
<glyph unicode="&#xd4;" horiz-adv-x="989" d="M72 446v463q0 260 64 383q89 170 325 170q274 0 362 -168q60 -113 60 -415v-363q0 -257 -77 -379q-97 -155 -339 -155q-395 0 -395 464zM145 1556l166 275h289l170 -275h-186l-123 191l-129 -191h-187zM256 483q0 -158 38 -235q53 -109 195 -109q138 0 183 144 q24 78 24 258q0 69 1 209t1 211q0 162 -38 238q-55 108 -201 108q-139 0 -180 -151q-21 -73 -21 -261q0 -69 -1 -206t-1 -206z" />
<glyph unicode="&#xd5;" horiz-adv-x="989" d="M72 446v463q0 260 64 383q89 170 325 170q274 0 362 -168q60 -113 60 -415v-363q0 -257 -77 -379q-97 -155 -339 -155q-395 0 -395 464zM154 1577v43q0 85 41 141q45 62 127 62q46 0 121 -36l116 -58h12q62 0 66 92h121q0 -3 1 -10.5t1 -10.5v-26q0 -199 -166 -199 q-49 0 -140.5 47t-107.5 47q-64 1 -72 -92h-120zM256 483q0 -158 38 -235q53 -109 195 -109q138 0 183 144q24 78 24 258q0 69 1 209t1 211q0 162 -38 238q-55 108 -201 108q-139 0 -180 -151q-21 -73 -21 -261q0 -69 -1 -206t-1 -206z" />
<glyph unicode="&#xd6;" horiz-adv-x="989" d="M72 446v463q0 260 64 383q89 170 325 170q273 0 361 -168q59 -112 59 -415v-365q0 -261 -73 -380q-94 -152 -339 -152q-397 0 -397 464zM160 1595v236h202v-236h-202zM258 500q1 -159 33 -237q49 -124 182 -124q151 0 197 136q22 66 24 262q4 313 4 434q0 158 -40 233 q-54 103 -199 103q-138 0 -180 -157q-21 -76 -21 -269v-381zM594 1595v236h201v-236h-201z" />
<glyph unicode="&#xd8;" horiz-adv-x="989" d="M-16 63l102 154q-25 65 -25 236q0 291 5 477q5 269 74 382q92 151 341 152q107 1 175.5 -28t136.5 -109l71 111l90 -58l-108 -170q26 -84 26 -243q0 -225 -8 -486q-8 -251 -80 -360q-92 -139 -327 -139q-104 0 -172.5 26.5t-141.5 97.5l-67 -102zM252 469l428 670 q-40 164 -211 164q-147 0 -190 -145q-21 -69 -23 -265zM266 291q37 -152 193 -152h2q163 0 205 161q15 56 18 294q2 148 2 356z" />
<glyph unicode="&#xd9;" horiz-adv-x="989" d="M74 446v1000h182v-997q0 -312 227 -312q152 0 194 175q17 71 17 294v840h183v-1016q0 -448 -410 -448q-393 0 -393 464zM242 1831h217l73 -264h-157z" />
<glyph unicode="&#xda;" horiz-adv-x="989" d="M74 446v1000h182v-997q0 -312 227 -312q152 0 194 175q17 71 17 294v840h183v-1016q0 -448 -410 -448q-393 0 -393 464zM360 1563l80 268h219l-141 -268h-158z" />
<glyph unicode="&#xdb;" horiz-adv-x="989" d="M74 446v1000h182v-997q0 -312 227 -312q152 0 194 175q17 71 17 294v840h183v-1016q0 -448 -410 -448q-393 0 -393 464zM141 1556l168 275h287l170 -275h-184l-125 191l-127 -191h-189z" />
<glyph unicode="&#xdc;" horiz-adv-x="989" d="M74 446v1000h182v-997q0 -312 227 -312q152 0 194 175q17 71 17 294v840h183v-1016q0 -448 -410 -448q-393 0 -393 464zM158 1595v236h202v-236h-202zM592 1595v236h201v-236h-201z" />
<glyph unicode="&#xdf;" d="M80 0v1087q0 359 323 359q176 0 253 -100q69 -88 69 -269q0 -227 -160 -264q185 -2 185 -360q0 -238 -63 -333q-80 -120 -306 -120h-35l-2 158q4 0 12.5 -1t12.5 -1q196 0 196 163v224q0 111 -56 153q-49 37 -163 35v150q128 -2 165 52q28 41 28 177q0 195 -144 195 q-89 0 -118 -90q-15 -47 -15 -162v-1053h-182z" />
<glyph unicode="&#xe0;" horiz-adv-x="782" d="M47 299q0 179 119 261q4 3 221 95q119 51 119 154q0 117 -137 117q-119 0 -119 -166q0 -18 2 -39h-166v61q0 287 299 287q166 0 232 -89q57 -76 57 -247v-596q0 -95 33 -137h-183l-6 123q-58 -76 -96 -100q-51 -33 -135 -33q-124 -1 -187 96q-53 81 -53 213zM137 1446 h221l82 -275h-147zM227 299q0 -158 138 -158q139 0 139 238v182q-96 -42 -191 -83q-86 -55 -86 -179z" />
<glyph unicode="&#xe1;" horiz-adv-x="782" d="M47 299q0 179 119 261q4 3 221 95q119 51 119 154q0 117 -137 117q-119 0 -119 -166q0 -18 2 -39h-166v61q0 287 299 287q166 0 232 -89q57 -76 57 -247v-596q0 -95 33 -137h-183l-6 123q-58 -76 -96 -100q-51 -33 -135 -33q-124 -1 -187 96q-53 81 -53 213zM227 299 q0 -158 138 -158q139 0 139 238v182q-96 -42 -191 -83q-86 -55 -86 -179zM270 1178l82 268h226l-154 -268h-154z" />
<glyph unicode="&#xe2;" horiz-adv-x="782" d="M47 299q0 179 119 261q4 3 221 95q119 51 119 154q0 117 -137 117q-119 0 -119 -166q0 -18 2 -39h-166v61q0 287 299 287q166 0 232 -89q57 -76 57 -247v-596q0 -95 33 -137h-183l-6 123q-58 -76 -96 -100q-51 -33 -135 -33q-124 -1 -187 96q-53 81 -53 213zM104 1174 l142 272h215l139 -272h-156l-94 157l-94 -157h-152zM227 299q0 -158 138 -158q139 0 139 238v182q-96 -42 -191 -83q-86 -55 -86 -179z" />
<glyph unicode="&#xe3;" horiz-adv-x="782" d="M47 299q0 179 119 261q4 3 221 95q119 51 119 154q0 117 -137 117q-119 0 -119 -166q0 -18 2 -39h-166v61q0 287 299 287q166 0 232 -89q57 -76 57 -247v-596q0 -95 33 -137h-183l-6 123q-58 -76 -96 -100q-51 -33 -135 -33q-124 -1 -187 96q-53 81 -53 213zM98 1178v39 q0 188 146 188q44 0 110.5 -37t89.5 -37q58 0 72 74h98v-27q0 -200 -145 -200q-42 0 -110 38.5t-99 38.5q-59 0 -63 -77h-99zM227 299q0 -158 138 -158q139 0 139 238v182q-96 -42 -191 -83q-86 -55 -86 -179z" />
<glyph unicode="&#xe4;" horiz-adv-x="782" d="M47 281q0 196 119 282q17 12 221 93q119 47 119 151q0 119 -141 119q-115 0 -115 -205h-166v63q0 285 293 285q186 0 249 -96q50 -75 50 -271l-2 -610q0 -46 35 -92h-185l-8 123q-78 -132 -227 -133q-115 -1 -182 89q-60 81 -60 202zM119 1243v205h188v-205h-188z M225 303q0 -162 119 -162q101 0 136 74q24 49 24 162v184q-181 -75 -191 -82q-88 -58 -88 -176zM446 1243v205h191v-205h-191z" />
<glyph unicode="&#xe5;" horiz-adv-x="782" d="M47 281q0 196 119 282q17 12 221 93q119 47 119 151q0 119 -141 119q-115 0 -115 -205h-166v63q0 285 293 285q186 0 249 -96q50 -75 50 -271l-2 -610q0 -46 35 -92h-185l-8 123q-78 -132 -227 -133q-115 -1 -182 89q-60 81 -60 202zM203 1317q0 71 51.5 122.5 t122.5 51.5q75 0 124.5 -51t49.5 -125t-50 -123t-124 -49t-124 50t-50 124zM225 303q0 -162 119 -162q101 0 136 74q24 49 24 162v184q-181 -75 -191 -82q-88 -58 -88 -176zM307 1307q0 -24 22 -42t46 -18h14q60 0 60 70q0 23 -21.5 47.5t-44.5 24.5q-29 0 -52.5 -20 t-23.5 -48v-14z" />
<glyph unicode="&#xe6;" horiz-adv-x="1278" d="M23 319q0 205 146 276q95 46 329 50v141q0 140 -127 140q-156 0 -152 -207h-176q0 350 338 348q122 -1 215 -88q88 88 235 88q223 0 298 -137q53 -97 53 -342q0 -31 -4 -92h-492v-68q0 -134 19 -194q34 -107 139 -107q97 0 132 71q25 49 25 156h177v-43 q0 -145 -83.5 -232t-228.5 -87q-158 0 -270 98q-125 -100 -248 -100q-151 0 -238 89t-87 240zM203 299q0 -72 41.5 -119t111.5 -47q142 0 142 172v182h-64q-120 0 -169 -32q-62 -42 -62 -156zM686 645h318v60q0 227 -162 227q-156 0 -156 -232v-55z" />
<glyph unicode="&#xe7;" horiz-adv-x="782" d="M63 393v285q0 188 67 281q79 110 259 110q175 0 250 -98q66 -85 66 -266h-166q-7 119 -23 157q-31 75 -127 76q-99 1 -132 -97q-18 -55 -19 -182l-2 -278q-1 -119 24 -174q38 -82 143 -82q90 0 119 108q14 50 17 181l170 2q2 -15 2 -43q0 -193 -68 -282 q-77 -101 -264 -101q-179 0 -255 119q-61 95 -61 284zM229 -434l82 170h-71v205h223v-205l-90 -170h-144z" />
<glyph unicode="&#xe8;" d="M57 496q0 300 33 390q66 183 309 183q332 0 332 -373v-213h-495l-3 -102q-5 -254 154 -254q101 0 139 68q25 46 29 159h176v-35q0 -156 -88.5 -242.5t-245.5 -86.5q-222 0 -294 154q-46 97 -46 352zM154 1446h223l82 -275h-148zM236 633h321q-2 71 -5 143q-7 76 -40 111 q-42 45 -137 45q-144 0 -139 -250v-49z" />
<glyph unicode="&#xe9;" d="M57 496q0 300 33 390q66 183 309 183q332 0 332 -373v-213h-495l-3 -102q-5 -254 154 -254q101 0 139 68q25 46 29 159h176v-35q0 -156 -88.5 -242.5t-245.5 -86.5q-222 0 -294 154q-46 97 -46 352zM236 633h321q-2 71 -5 143q-7 76 -40 111q-42 45 -137 45 q-144 0 -139 -250v-49zM289 1178l82 268h223l-154 -268h-151z" />
<glyph unicode="&#xea;" d="M57 496q0 300 33 390q66 183 309 183q332 0 332 -373v-213h-495l-3 -102q-5 -254 154 -254q101 0 139 68q25 46 29 159h176v-35q0 -156 -88.5 -242.5t-245.5 -86.5q-222 0 -294 154q-46 97 -46 352zM123 1174l141 272h215l139 -272h-155l-94 157l-95 -157h-151zM236 633 h321q-2 71 -5 143q-7 76 -40 111q-42 45 -137 45q-144 0 -139 -250v-49z" />
<glyph unicode="&#xeb;" d="M57 496q0 300 33 390q66 183 309 183q332 0 332 -373v-213h-495l-3 -102q-5 -254 154 -254q101 0 139 68q25 46 29 159h176v-35q0 -156 -88.5 -242.5t-245.5 -86.5q-222 0 -294 154q-46 97 -46 352zM113 1241v205h188v-205h-188zM236 633h321q-2 71 -5 143q-7 76 -40 111 q-42 45 -137 45q-144 0 -139 -250v-49zM440 1241v205h191v-205h-191z" />
<glyph unicode="&#xec;" horiz-adv-x="371" d="M-45 1446h219l84 -275h-147zM104 0v1059h179v-1059h-179z" />
<glyph unicode="&#xed;" horiz-adv-x="371" d="M98 1178l84 268h224l-154 -268h-154zM115 0v1059h178v-1059h-178z" />
<glyph unicode="&#xee;" horiz-adv-x="371" d="M-82 1174l141 272h211l142 -272h-154l-96 157l-92 -157h-152zM98 0v1059h178v-1059h-178z" />
<glyph unicode="&#xef;" horiz-adv-x="371" d="M-96 1241v205h188v-205h-188zM94 0v1059h178v-1059h-178zM231 1241v205h189v-205h-189z" />
<glyph unicode="&#xf1;" d="M78 0v1059h172v-115q91 127 227 127q151 0 209 -102q43 -76 43 -240v-729h-182v715q0 101 -14 137q-25 66 -109 66q-116 0 -149 -111q-15 -51 -15 -205v-602h-182zM123 1178v39q0 188 147 188q45 0 110 -37t89 -37q56 0 72 74h98v-27q0 -82 -32 -135q-39 -65 -115 -65 q-42 0 -109 38.5t-98 38.5q-59 0 -64 -77h-98z" />
<glyph unicode="&#xf2;" d="M61 381v328q0 358 326 358q211 0 288 -122q58 -94 58 -318v-258q0 -379 -342 -379q-182 0 -261 108q-69 93 -69 283zM156 1446h223l82 -275h-148zM238 387q0 -118 25 -175q38 -85 140 -85q103 0 135 93q17 51 17 179v289q-1 118 -29 170q-39 74 -145 74q-143 0 -143 -250 v-295z" />
<glyph unicode="&#xf3;" d="M61 381v328q0 358 326 358q211 0 288 -122q58 -94 58 -318v-258q0 -379 -342 -379q-182 0 -261 108q-69 93 -69 283zM238 387q0 -118 25 -175q38 -85 140 -85q103 0 135 93q17 51 17 179v289q-1 118 -29 170q-39 74 -145 74q-143 0 -143 -250v-295zM291 1178l82 268h223 l-154 -268h-151z" />
<glyph unicode="&#xf4;" d="M61 381v328q0 358 326 358q211 0 288 -122q58 -94 58 -318v-258q0 -379 -342 -379q-182 0 -261 108q-69 93 -69 283zM125 1174l141 272h215l140 -272h-156l-94 157l-95 -157h-151zM238 387q0 -118 25 -175q38 -85 140 -85q103 0 135 93q17 51 17 179v289q-1 118 -29 170 q-39 74 -145 74q-143 0 -143 -250v-295z" />
<glyph unicode="&#xf5;" d="M61 381v328q0 358 326 358q211 0 288 -122q58 -94 58 -318v-258q0 -379 -342 -379q-182 0 -261 108q-69 93 -69 283zM119 1178v39q0 188 147 188q45 0 110 -37t89 -37q56 0 72 74h98v-27q0 -82 -32 -135q-39 -65 -116 -65q-41 0 -108 38.5t-98 38.5q-60 0 -64 -77h-98z M238 387q0 -118 25 -175q38 -85 140 -85q103 0 135 93q17 51 17 179v289q-1 118 -29 170q-39 74 -145 74q-143 0 -143 -250v-295z" />
<glyph unicode="&#xf6;" d="M61 381v328q0 358 326 358q222 0 295 -137q51 -95 51 -338v-223q0 -379 -344 -379q-182 0 -260 109q-68 93 -68 282zM139 1241v205h189v-205h-189zM236 385q-3 -258 167 -258q95 0 129 78q23 52 23 162v313q0 123 -26 175q-38 77 -148 77q-143 0 -143 -252q0 -76 -2 -295 zM467 1241v205h188v-205h-188z" />
<glyph unicode="&#xf7;" horiz-adv-x="1126" d="M23 465v106h1034v-106h-1034zM420 250q0 45 32 77.5t76 32.5q45 0 78 -33t33 -77q0 -45 -33 -78t-78 -33q-44 0 -76 33t-32 78zM420 786q0 45 32 78t76 33q45 0 78 -33t33 -78q0 -44 -33 -77t-78 -33q-44 0 -76 33t-32 77z" />
<glyph unicode="&#xf8;" d="M-8 35l92 139q-29 111 -29 195v229q0 238 51 334q74 137 291 137q160 0 254 -92l76 100l82 -59l-100 -144q18 -103 18 -174v-362q0 -348 -346 -348q-123 0 -236 82l-61 -97zM229 688q0 -50 1 -150.5t1 -150.5l312 432h2q-21 64 -51 88q-33 27 -99 27q-166 0 -166 -246z M250 223q35 -94 141 -94q115 0 148 102q14 46 16 199q2 180 2 154v69z" />
<glyph unicode="&#xf9;" d="M72 336v723h182v-760q0 -156 131 -156q109 0 143 107q19 57 19 196v613h176v-1053l-176 -6l-2 106q-80 -120 -219 -120q-254 0 -254 350zM158 1446h223l82 -275h-148z" />
<glyph unicode="&#xfa;" d="M72 336v723h182v-760q0 -156 131 -156q109 0 143 107q19 57 19 196v613h176v-1053l-176 -6l-2 106q-80 -120 -219 -120q-254 0 -254 350zM293 1178l82 268h223l-154 -268h-151z" />
<glyph unicode="&#xfb;" d="M72 336v723h182v-760q0 -156 131 -156q109 0 143 107q19 57 19 196v613h176v-1053l-176 -6l-2 106q-80 -120 -219 -120q-254 0 -254 350zM127 1174l141 272h215l138 -272h-154l-94 157l-94 -157h-152z" />
<glyph unicode="&#xfc;" d="M72 336v723h182v-760q0 -156 131 -156q109 0 143 104q19 57 19 193v619h178v-1053l-178 -6l-2 106q-80 -120 -221 -120q-252 0 -252 350zM141 1241v205h189v-205h-189zM467 1241v205h190v-205h-190z" />
<glyph unicode="&#xff;" horiz-adv-x="700" d="M-35 1059h193l145 -621q22 -95 29 -200q16 174 70 412q48 205 96 409h192l-323 -1227q-37 -137 -123 -175q-50 -22 -217 -28l-2 154h22q101 0 140 83q23 85 46 171zM45 1241v205h191v-205h-191zM375 1241v205h188v-205h-188z" />
<glyph unicode="&#x152;" horiz-adv-x="1403" d="M51 487v398q0 273 58 396q85 183 327 183q104 0 244 -84v66h653v-166h-471v-446h434v-166h-434v-496h471v-172h-653l-2 74q-120 -92 -254 -92q-373 0 -373 505zM240 485q0 -166 34 -238q52 -108 199 -108q133 0 175 135q24 74 24 246q0 74 1 221.5t1 221.5q0 151 -33 229 q-49 117 -178 117q-140 0 -190 -115q-33 -75 -33 -236v-473z" />
<glyph unicode="&#x153;" horiz-adv-x="1319" d="M35 451v163q0 232 55 327q76 128 291 128q128 0 246 -84q117 84 243 84q209 0 287 -116q62 -92 62 -312v-147h-502q0 -19 -1 -55.5t-1 -53.5q0 -256 162 -256q99 0 136 70q25 49 27 159h179v-41q0 -152 -90.5 -239.5t-243.5 -87.5q-145 0 -258 88q-114 -86 -250 -86 q-215 0 -289 131q-53 94 -53 328zM211 406q0 -136 20 -188q36 -89 150 -89q156 0 156 240v311q0 118 -26 172q-38 80 -142 80q-99 0 -135 -85q-23 -56 -23 -171v-270zM717 645h325q-2 134 -15 181q-30 106 -124 106h-47q-89 0 -120 -107q-17 -56 -19 -180z" />
<glyph unicode="&#x178;" horiz-adv-x="948" d="M-47 1446h209l150 -314q87 -185 128 -323q46 128 283 637h211l-397 -817v-629h-187v629zM100 1595v236h203v-236h-203zM535 1595v236h200v-236h-200z" />
<glyph unicode="&#x2c6;" horiz-adv-x="0" d="M-248 1174l142 272h212l140 -272h-156l-94 157l-92 -157h-152z" />
<glyph unicode="&#x2dc;" horiz-adv-x="0" d="M-256 1178v39q0 77 34 128q39 60 111 60q46 0 112.5 -37.5t88.5 -38.5q57 -1 72 76h98v-27q0 -200 -147 -200q-42 0 -109 38.5t-100 38.5q-55 0 -60 -77h-100z" />
<glyph unicode="&#x2000;" horiz-adv-x="936" />
<glyph unicode="&#x2001;" horiz-adv-x="1872" />
<glyph unicode="&#x2002;" horiz-adv-x="936" />
<glyph unicode="&#x2003;" horiz-adv-x="1872" />
<glyph unicode="&#x2004;" horiz-adv-x="624" />
<glyph unicode="&#x2005;" horiz-adv-x="468" />
<glyph unicode="&#x2006;" horiz-adv-x="312" />
<glyph unicode="&#x2007;" horiz-adv-x="312" />
<glyph unicode="&#x2008;" horiz-adv-x="234" />
<glyph unicode="&#x2009;" horiz-adv-x="374" />
<glyph unicode="&#x200a;" horiz-adv-x="104" />
<glyph unicode="&#x2010;" horiz-adv-x="616" d="M66 514v166h471v-166h-471z" />
<glyph unicode="&#x2011;" horiz-adv-x="616" d="M66 514v166h471v-166h-471z" />
<glyph unicode="&#x2012;" horiz-adv-x="616" d="M66 514v166h471v-166h-471z" />
<glyph unicode="&#x2013;" d="M55 514v170h684v-170h-684z" />
<glyph unicode="&#x2014;" horiz-adv-x="989" d="M-49 516v164h1022v-164h-1022z" />
<glyph unicode="&#x2018;" horiz-adv-x="412" d="M123 975v180q0 216 182 297l2 -129q-70 -47 -80 -143h78v-205h-182z" />
<glyph unicode="&#x2019;" horiz-adv-x="412" d="M119 967v131q44 44 55 61q16 28 21 80h-76v207l180 2v-111q0 -143 -29 -217q-39 -103 -151 -153z" />
<glyph unicode="&#x201a;" horiz-adv-x="397" d="M121 0v207h186v-166q0 -229 -186 -313v129h2q72 33 76 143h-78z" />
<glyph unicode="&#x201c;" horiz-adv-x="743" d="M100 977v205q0 185 181 270l2 -131q-66 -42 -76 -139h74v-205h-181zM432 977v131q0 261 184 344l-2 -127q-40 -34 -53 -62q-11 -24 -16 -81h71v-205h-184z" />
<glyph unicode="&#x201d;" horiz-adv-x="743" d="M106 971v129q62 25 72 141h-72v205h187v-131q0 -266 -187 -344zM444 971v131q64 36 72 139h-72v205l183 -2v-105q0 -144 -31 -215q-38 -89 -152 -153z" />
<glyph unicode="&#x201e;" horiz-adv-x="743" d="M106 2v205h187v-133q0 -252 -187 -344v129q43 39 55.5 63t16.5 80h-72zM444 2v205l183 2v-105q0 -146 -30 -218q-39 -95 -153 -156v133q65 62 72 139h-72z" />
<glyph unicode="&#x2022;" horiz-adv-x="682" d="M74 723q0 110 81 188t191 78q109 0 185.5 -78.5t76.5 -187.5q0 -113 -75 -189.5t-187 -76.5q-111 0 -191.5 78t-80.5 188z" />
<glyph unicode="&#x2026;" horiz-adv-x="2048" d="M236 0v217h213v-217h-213zM918 0v217h212v-217h-212zM1599 0v217h213v-217h-213z" />
<glyph unicode="&#x202f;" horiz-adv-x="374" />
<glyph unicode="&#x2039;" horiz-adv-x="682" d="M180 473v189l322 251v-180l-215 -166l215 -166v-180z" />
<glyph unicode="&#x203a;" horiz-adv-x="682" d="M180 221v180l215 166l-215 166v180l322 -251v-189z" />
<glyph unicode="&#x205f;" horiz-adv-x="468" />
<glyph unicode="&#x2122;" horiz-adv-x="1825" d="M37 1133l6 190h623l6 -190l-35 -3v17q0 87 -75 116q-40 15 -148 17v-614q0 -54 98 -54v-37h-315v37q100 0 100 54l-2 614q-114 -2 -155 -20q-72 -32 -66 -130zM729 1288v35h225l258 -565l248 565h221v-35h-18q-78 0 -78 -49v-573q0 -54 98 -54v-37h-315v37q100 0 100 54 v544l-262 -635h-37l-282 605v-514q0 -54 100 -54v-37h-254v37q101 0 101 54v553q0 50 -30 63q-15 6 -75 6z" />
<glyph unicode="&#xe000;" horiz-adv-x="1060" d="M0 0v1060h1060v-1060h-1060z" />
</font>
</defs>
</svg>
